<?xml version="1.0" encoding="UTF-8"?>
<!DOCTYPE svg PUBLIC "-//W3C//DTD SVG 1.1//EN" "http://www.w3.org/Graphics/SVG/1.1/DTD/svg11.dtd">
<!-- Creator: CorelDRAW 2018 (64-Bit) -->
<svg xmlns="http://www.w3.org/2000/svg" xml:space="preserve" width="14in" height="4.6in" version="1.1" style="shape-rendering:geometricPrecision; text-rendering:geometricPrecision; image-rendering:optimizeQuality; fill-rule:evenodd; clip-rule:evenodd"
viewBox="0 0 14000 4600"
 xmlns:xlink="http://www.w3.org/1999/xlink">
 <defs>
  <style type="text/css">
   <![CDATA[
    .str0 {stroke:#373435;stroke-width:13.89;stroke-miterlimit:2.61313}
    .fil1 {fill:none;fill-rule:nonzero}
    .fil2 {fill:black}
    .fil0 {fill:#373435;fill-rule:nonzero}
   ]]>
  </style>
 </defs>
 <g id="Layer_x0020_1">
  <metadata id="CorelCorpID_0Corel-Layer"/>
  <polygon class="fil0" points="4594.96,2693.17 4234.76,2693.17 4234.76,2060.09 4594.96,2060.09 4594.96,2132.53 4321.09,2132.53 4321.09,2329 4584.37,2329 4584.37,2401.44 4321.09,2401.44 4321.09,2619.74 4594.96,2619.74 "/>
  <polygon id="1" class="fil0" points="5199.09,2693.17 5087.13,2693.17 4955.98,2507.94 4825.83,2693.17 4716.84,2693.17 4905.38,2448.74 4725.78,2206.95 4833.77,2206.95 4961.28,2393.83 5086.96,2206.95 5191.15,2206.95 5008.24,2450.39 "/>
  <path id="2" class="fil0" d="M5684.15 2675.3c-21.99,8.44 -44.48,14.72 -67.64,18.69 -23.15,4.13 -46.97,6.12 -71.44,6.12 -76.9,0 -136.11,-20.84 -177.62,-62.51 -41.51,-41.68 -62.35,-102.54 -62.35,-182.74 0,-38.37 5.95,-73.26 17.86,-104.69 12.07,-31.26 28.78,-58.05 50.44,-80.37 21.66,-22.33 47.63,-39.53 77.56,-51.6 30.1,-12.07 63.17,-18.19 99.39,-18.19 25.14,0 48.79,1.82 70.78,5.29 22,3.64 43,9.43 63.01,17.53l0 80.37c-21,-11.08 -42.33,-19.19 -64.17,-24.15 -21.83,-5.13 -44.32,-7.61 -67.64,-7.61 -21.66,0 -42,4.13 -61.35,12.4 -19.19,8.27 -36.05,20.01 -50.61,35.56 -14.55,15.54 -25.96,34.4 -34.4,56.72 -8.44,22.33 -12.57,47.46 -12.57,75.58 0,58.87 14.22,102.87 42.83,132.14 28.61,29.27 68.3,43.82 119.07,43.82 22.82,0 45.15,-2.65 66.65,-7.77 21.33,-5.13 42.17,-12.73 62.18,-22.99l0 78.39z"/>
  <path id="3" class="fil0" d="M6017.39 2276.41l-143.88 0 0 -69.46 229.22 0 0 415.76 144.87 0 0 70.45 -389.96 0 0 -70.45 159.76 0 0 -346.3zm29.77 -273.87c9.43,0 18.19,1.65 26.13,5.13 8.11,3.31 15.22,8.1 21.17,14.22 5.95,6.29 10.75,13.23 14.06,21.17 3.47,7.94 5.13,16.54 5.13,25.96 0,9.09 -1.65,17.7 -5.13,25.63 -3.31,8.1 -8.11,15.22 -14.06,21.5 -5.95,6.12 -13.06,10.91 -21.17,14.22 -7.94,3.48 -16.7,5.13 -26.13,5.13 -9.43,0 -18.19,-1.65 -26.13,-5.13 -8.1,-3.31 -15.21,-8.1 -21.17,-14.22 -5.96,-6.28 -10.75,-13.4 -14.06,-21.5 -3.47,-7.94 -5.13,-16.54 -5.13,-25.63 0,-9.43 1.65,-18.03 5.13,-25.96 3.31,-7.94 8.1,-14.88 14.06,-21.17 5.95,-6.12 13.06,-10.91 21.17,-14.22 7.94,-3.47 16.7,-5.13 26.13,-5.13z"/>
  <path id="4" class="fil0" d="M6783.26 2560.53c0,17.2 -2.98,32.58 -8.77,46.14 -5.79,13.56 -13.72,25.63 -23.81,36.05 -9.92,10.58 -21.66,19.52 -34.89,26.96 -13.23,7.44 -27.45,13.56 -42.5,18.36 -15.05,4.8 -30.43,8.43 -46.31,10.58 -15.88,2.31 -31.26,3.47 -46.47,3.47 -33.07,0 -63.34,-1.49 -91.13,-4.46 -27.62,-2.98 -54.74,-7.77 -81.2,-14.39l0 -77.4c28.44,8.1 56.73,14.22 84.84,18.52 28.28,4.14 56.23,6.29 84.01,6.29 40.52,0 70.45,-5.46 89.8,-16.37 19.35,-11.08 29.11,-26.63 29.11,-46.97 0,-8.76 -1.49,-16.54 -4.63,-23.48 -2.98,-6.94 -8.6,-13.56 -16.7,-19.84 -8.11,-6.29 -20.67,-12.9 -37.71,-19.68 -17.04,-6.78 -40.19,-14.56 -69.79,-23.15 -21.99,-6.61 -42.33,-13.89 -60.86,-22.16 -18.69,-8.27 -34.73,-18.03 -48.46,-29.27 -13.56,-11.25 -24.15,-24.64 -31.92,-39.69 -7.77,-15.21 -11.74,-33.24 -11.74,-53.91 0,-13.56 3.14,-28.44 9.43,-44.48 6.45,-16.21 17.2,-31.26 32.41,-45.15 15.22,-13.89 35.72,-25.47 61.69,-34.56 25.96,-9.26 58.38,-13.89 97.24,-13.89 19.19,0 40.35,0.99 63.67,3.14 23.32,1.98 47.63,5.62 72.93,10.75l0 75.41c-26.63,-6.45 -51.76,-11.24 -75.58,-14.22 -23.98,-3.14 -44.65,-4.63 -62.02,-4.63 -21.17,0 -38.86,1.65 -53.42,4.8 -14.39,3.31 -26.13,7.77 -34.89,13.39 -8.93,5.63 -15.38,12.24 -19.35,19.68 -3.8,7.61 -5.79,15.71 -5.79,24.48 0,8.76 1.65,16.7 5.13,23.81 3.31,7.11 9.76,13.89 18.85,20.51 9.26,6.61 22.16,13.23 38.7,19.85 16.54,6.61 38.04,13.89 64.67,21.66 28.78,8.44 53.09,17.2 72.93,26.46 19.68,9.1 35.72,19.35 47.96,30.76 12.41,11.24 21.17,23.98 26.63,38.2 5.3,14.22 7.94,30.43 7.94,48.46z"/>
  <path id="5" class="fil0" d="M7353.65 2424.09c0,11.91 -0.17,22 -0.5,29.93 -0.33,8.1 -0.83,15.71 -1.49,22.82l-341.34 0c0,49.78 13.89,88.15 41.67,114.77 27.78,26.63 67.81,40.02 120.23,40.02 14.22,0 28.44,-0.5 42.67,-1.65 14.22,-1.16 27.95,-2.65 41.18,-4.63 13.23,-1.98 25.96,-4.13 38.04,-6.61 12.24,-2.31 23.32,-4.96 33.74,-7.94l0 69.46c-22.99,6.45 -48.95,11.74 -77.89,15.71 -28.78,4.13 -58.88,6.12 -89.8,6.12 -41.84,0 -77.73,-5.62 -107.66,-17.03 -30.1,-11.25 -54.74,-27.62 -73.93,-49.12 -19.35,-21.5 -33.57,-47.8 -42.67,-79.05 -9.26,-31.09 -13.89,-66.48 -13.89,-105.84 0,-34.24 4.96,-66.65 14.72,-97.24 9.92,-30.43 24.31,-57.39 43.16,-80.37 18.85,-23.15 42.01,-41.51 69.46,-55.07 27.45,-13.56 58.71,-20.34 93.61,-20.34 33.9,0 63.83,5.29 90.13,16.04 26.13,10.58 48.13,25.63 65.99,45.15 18.02,19.52 31.59,43.33 40.85,71.28 9.1,27.78 13.73,59.04 13.73,93.61zm-87.32 -11.74c0.99,-21.67 -1.16,-41.51 -6.28,-59.37 -5.13,-17.86 -13.23,-33.41 -23.98,-46.31 -10.91,-12.9 -24.31,-22.99 -40.52,-30.26 -16.21,-7.28 -34.9,-10.91 -56.23,-10.91 -18.52,0 -35.22,3.47 -50.44,10.58 -15.22,7.11 -28.28,17.2 -39.36,30.1 -10.91,12.9 -19.85,28.44 -26.63,46.64 -6.78,18.03 -10.91,37.87 -12.57,59.54l256 0z"/>
  <polygon id="6" class="fil0" points="8460.7,2133.52 8273.16,2133.52 8273.16,2693.17 8185.84,2693.17 8185.84,2133.52 7998.3,2133.52 7998.3,2060.09 8460.7,2060.09 "/>
  <path id="7" class="fil0" d="M8892.34 2693.17l-1.82 -65.33c-26.46,26.13 -53.42,45.15 -80.7,56.73 -27.29,11.74 -56.06,17.53 -86,17.53 -27.78,0 -51.59,-3.64 -71.28,-10.75 -19.68,-7.11 -36.06,-16.87 -48.79,-29.27 -12.74,-12.41 -22.16,-26.96 -28.11,-43.83 -5.95,-16.87 -8.93,-35.06 -8.93,-54.74 0,-48.79 18.19,-86.99 54.58,-114.61 36.38,-27.62 89.96,-41.51 161.08,-41.51l100.88 0 0 -42.67c0,-28.94 -9.26,-51.93 -27.62,-69.29 -18.52,-17.37 -46.64,-25.96 -84.35,-25.96 -27.45,0 -54.57,3.14 -81.2,9.26 -26.63,6.28 -54.24,15.05 -82.69,26.46l0 -76.41c10.58,-3.8 22.49,-7.61 35.56,-11.24 13.07,-3.8 26.96,-6.94 41.35,-9.93 14.56,-2.81 29.77,-5.13 45.65,-6.94 15.71,-1.82 31.75,-2.65 47.8,-2.65 29.44,0 55.9,3.31 79.55,9.76 23.48,6.45 43.49,16.21 59.7,29.44 16.37,13.23 28.78,29.93 37.54,49.94 8.77,20.01 13.07,43.66 13.07,70.78l0 335.22 -75.25 0zm-9.09 -221.28l-107 0c-21,0 -39.19,2.15 -54.41,6.28 -15.05,4.13 -27.62,10.25 -37.21,17.86 -9.76,7.78 -16.87,17.04 -21.67,27.95 -4.63,10.75 -6.94,22.98 -6.94,36.55 0,9.26 1.49,18.19 4.3,26.79 2.98,8.6 7.61,16.21 14.06,22.82 6.45,6.61 14.88,11.74 25.3,15.71 10.25,3.81 22.82,5.79 37.7,5.79 19.35,0 41.68,-5.96 66.65,-17.7 24.97,-11.74 51.43,-30.43 79.22,-55.9l0 -86.16z"/>
  <polygon id="8" class="fil0" points="9563.78,2693.17 9451.82,2693.17 9320.67,2507.94 9190.52,2693.17 9081.54,2693.17 9270.07,2448.74 9090.47,2206.95 9198.46,2206.95 9325.97,2393.83 9451.65,2206.95 9555.84,2206.95 9372.93,2450.39 "/>
  <polygon id="9" class="fil0" points="10660.91,2693.17 10576.57,2693.17 10563.67,2297.41 10558.21,2146.75 10528.77,2234.57 10435.5,2486.77 10375.96,2486.77 10286.99,2244.16 10257.55,2146.75 10255.56,2304.19 10244.15,2693.17 10162.79,2693.17 10194.04,2060.09 10296.25,2060.09 10381.42,2298.9 10408.87,2379.44 10435.5,2298.9 10524.8,2060.09 10629.98,2060.09 "/>
  <path id="10" class="fil0" d="M11074.69 2693.17l-1.82 -65.33c-26.46,26.13 -53.42,45.15 -80.7,56.73 -27.29,11.74 -56.06,17.53 -86,17.53 -27.78,0 -51.59,-3.64 -71.28,-10.75 -19.68,-7.11 -36.06,-16.87 -48.79,-29.27 -12.74,-12.41 -22.16,-26.96 -28.11,-43.83 -5.95,-16.87 -8.93,-35.06 -8.93,-54.74 0,-48.79 18.19,-86.99 54.58,-114.61 36.38,-27.62 89.96,-41.51 161.08,-41.51l100.88 0 0 -42.67c0,-28.94 -9.26,-51.93 -27.62,-69.29 -18.52,-17.37 -46.64,-25.96 -84.35,-25.96 -27.45,0 -54.57,3.14 -81.2,9.26 -26.63,6.28 -54.24,15.05 -82.69,26.46l0 -76.41c10.58,-3.8 22.49,-7.61 35.56,-11.24 13.07,-3.8 26.96,-6.94 41.35,-9.93 14.56,-2.81 29.77,-5.13 45.65,-6.94 15.71,-1.82 31.75,-2.65 47.8,-2.65 29.44,0 55.9,3.31 79.55,9.76 23.48,6.45 43.49,16.21 59.7,29.44 16.37,13.23 28.78,29.93 37.54,49.94 8.77,20.01 13.07,43.66 13.07,70.78l0 335.22 -75.25 0zm-9.09 -221.28l-107 0c-21,0 -39.19,2.15 -54.41,6.28 -15.05,4.13 -27.62,10.25 -37.21,17.86 -9.76,7.78 -16.87,17.04 -21.67,27.95 -4.63,10.75 -6.94,22.98 -6.94,36.55 0,9.26 1.49,18.19 4.3,26.79 2.98,8.6 7.61,16.21 14.06,22.82 6.45,6.61 14.88,11.74 25.3,15.71 10.25,3.81 22.82,5.79 37.7,5.79 19.35,0 41.68,-5.96 66.65,-17.7 24.97,-11.74 51.43,-30.43 79.22,-55.9l0 -86.16z"/>
  <path id="11" class="fil0" d="M11307.54 2206.95l75.08 0 3.47 78.39c14.22,-16.7 27.95,-30.76 41.18,-42 13.23,-11.08 26.13,-20.01 39.03,-26.79 12.74,-6.95 25.63,-11.58 38.87,-14.39 13.23,-2.81 26.96,-4.13 41.18,-4.13 50.11,0 87.98,14.72 113.61,44.32 25.63,29.6 38.54,74.09 38.54,133.46l0 317.36 -84.34 0 0 -310.75c0,-38.2 -7.11,-66.31 -21.33,-84.51 -14.22,-18.36 -35.39,-27.45 -63.34,-27.45 -10.42,0 -20.5,1.49 -30.26,4.63 -9.92,2.98 -20.17,8.43 -30.76,16.04 -10.75,7.61 -22.33,17.86 -34.73,30.76 -12.41,12.9 -26.3,29.11 -41.84,48.46l0 322.82 -84.34 0 0 -486.22z"/>
  <path id="12" class="fil0" d="M12165.86 2693.17l-1.82 -65.33c-26.46,26.13 -53.42,45.15 -80.7,56.73 -27.29,11.74 -56.06,17.53 -86,17.53 -27.78,0 -51.59,-3.64 -71.28,-10.75 -19.68,-7.11 -36.06,-16.87 -48.79,-29.27 -12.74,-12.41 -22.16,-26.96 -28.11,-43.83 -5.95,-16.87 -8.93,-35.06 -8.93,-54.74 0,-48.79 18.19,-86.99 54.58,-114.61 36.38,-27.62 89.96,-41.51 161.08,-41.51l100.88 0 0 -42.67c0,-28.94 -9.26,-51.93 -27.62,-69.29 -18.52,-17.37 -46.64,-25.96 -84.35,-25.96 -27.45,0 -54.57,3.14 -81.2,9.26 -26.63,6.28 -54.24,15.05 -82.69,26.46l0 -76.41c10.58,-3.8 22.49,-7.61 35.56,-11.24 13.07,-3.8 26.96,-6.94 41.35,-9.93 14.56,-2.81 29.77,-5.13 45.65,-6.94 15.71,-1.82 31.75,-2.65 47.8,-2.65 29.44,0 55.9,3.31 79.55,9.76 23.48,6.45 43.49,16.21 59.7,29.44 16.37,13.23 28.78,29.93 37.54,49.94 8.77,20.01 13.07,43.66 13.07,70.78l0 335.22 -75.25 0zm-9.09 -221.28l-107 0c-21,0 -39.19,2.15 -54.41,6.28 -15.05,4.13 -27.62,10.25 -37.21,17.86 -9.76,7.78 -16.87,17.04 -21.67,27.95 -4.63,10.75 -6.94,22.98 -6.94,36.55 0,9.26 1.49,18.19 4.3,26.79 2.98,8.6 7.61,16.21 14.06,22.82 6.45,6.61 14.88,11.74 25.3,15.71 10.25,3.81 22.82,5.79 37.7,5.79 19.35,0 41.68,-5.96 66.65,-17.7 24.97,-11.74 51.43,-30.43 79.22,-55.9l0 -86.16z"/>
  <path id="13" class="fil0" d="M12749.15 2275.42c9.1,11.24 16.04,24.48 21.17,39.53 4.96,15.05 7.44,31.42 7.44,48.78 0,25.3 -4.63,48.29 -13.89,69.13 -9.09,20.84 -22.16,38.7 -38.87,53.58 -16.87,14.89 -37.04,26.3 -60.36,34.56 -23.48,8.27 -49.28,12.41 -77.4,12.41 -20.34,0 -39.36,-2.15 -57.22,-6.61 -17.7,-4.3 -31.75,-9.76 -42.17,-16.21 -6.12,9.09 -11.24,17.7 -15.38,25.8 -4.13,7.94 -6.28,17.04 -6.28,26.96 0,12.41 5.95,22.49 17.69,30.59 11.74,8.11 27.45,12.41 46.8,13.07l128 4.8c24.15,0.66 46.64,3.8 67.14,9.26 20.51,5.46 38.04,13.4 52.76,23.65 14.72,10.42 26.13,23.15 34.4,38.37 8.27,15.05 12.4,32.74 12.4,52.76 0,21.66 -4.63,42.17 -14.06,61.52 -9.43,19.35 -23.81,36.38 -43.33,51.1 -19.52,14.56 -44.32,26.3 -74.42,35.06 -30.1,8.77 -65.82,13.07 -107.17,13.07 -39.36,0 -72.93,-3.14 -100.55,-9.43 -27.62,-6.28 -50.28,-15.05 -67.97,-26.13 -17.86,-11.08 -30.76,-24.31 -38.87,-39.69 -8.1,-15.38 -12.07,-32.08 -12.07,-50.44 0,-23.65 5.46,-44.32 16.37,-62.02 10.92,-17.7 27.95,-34.9 50.77,-51.27 -8.43,-3.81 -15.71,-8.77 -21.83,-14.56 -6.12,-5.79 -11.08,-12.24 -14.88,-19.19 -3.8,-6.94 -6.78,-14.22 -8.76,-21.99 -1.82,-7.78 -2.81,-15.38 -2.81,-22.82 0,-21 4.96,-40.19 14.72,-57.72 9.76,-17.53 21.5,-33.9 34.89,-49.44 -6.12,-7.44 -11.41,-14.72 -16.2,-21.83 -4.63,-7.11 -8.6,-14.72 -12.07,-22.99 -3.31,-8.27 -5.95,-17.2 -7.77,-26.63 -1.82,-9.59 -2.65,-20.51 -2.65,-32.74 0,-25.3 4.63,-48.29 13.89,-69.13 9.1,-20.84 22.16,-38.7 38.7,-53.58 16.7,-14.89 36.71,-26.3 60.2,-34.56 23.48,-8.27 49.28,-12.41 77.73,-12.41 12.07,0 23.48,0.83 34.57,2.48 10.91,1.65 20.67,3.8 29.11,6.45l176.46 0 0 68.47 -78.22 0zm-292.89 488.04c0,22.82 11.91,39.52 35.89,49.94 23.98,10.42 57.22,15.71 99.89,15.71 26.79,0 49.45,-2.48 67.64,-7.28 18.36,-4.8 32.91,-11.08 44.16,-19.02 11.08,-7.94 19.18,-16.87 23.98,-26.96 4.8,-10.25 7.28,-20.67 7.28,-31.26 0,-19.52 -8.1,-34.07 -24.31,-43.33 -16.04,-9.43 -40.85,-14.88 -74.09,-16.54l-127.01 -4.3c-10.75,7.11 -19.52,14.06 -26.46,20.67 -6.94,6.78 -12.4,13.73 -16.2,20.67 -3.97,6.78 -6.78,13.73 -8.27,20.67 -1.65,6.94 -2.48,13.89 -2.48,21zm25.8 -397.74c0,15.55 2.65,29.77 7.77,42.67 5.13,12.9 12.41,23.81 21.83,32.91 9.26,9.1 20.34,16.04 33.24,21.17 12.73,4.96 26.79,7.44 42.33,7.44 16.87,0 31.75,-2.81 44.82,-8.43 13.06,-5.62 24.15,-13.39 32.91,-22.99 8.93,-9.76 15.71,-20.84 20.34,-33.57 4.8,-12.57 7.11,-25.63 7.11,-39.2 0,-15.54 -2.65,-29.77 -7.77,-42.67 -5.13,-12.9 -12.41,-23.81 -21.83,-32.91 -9.26,-9.1 -20.34,-16.04 -33.24,-21.17 -12.74,-4.96 -26.79,-7.44 -42.34,-7.44 -16.87,0 -31.75,2.98 -44.82,8.77 -13.06,5.79 -24.14,13.39 -32.91,22.99 -8.93,9.59 -15.71,20.5 -20.34,33.24 -4.8,12.57 -7.11,25.63 -7.11,39.19z"/>
  <path id="14" class="fil0" d="M13355.11 2424.09c0,11.91 -0.17,22 -0.5,29.93 -0.33,8.1 -0.83,15.71 -1.49,22.82l-341.34 0c0,49.78 13.89,88.15 41.67,114.77 27.78,26.63 67.81,40.02 120.23,40.02 14.22,0 28.44,-0.5 42.67,-1.65 14.22,-1.16 27.95,-2.65 41.18,-4.63 13.23,-1.98 25.96,-4.13 38.04,-6.61 12.24,-2.31 23.32,-4.96 33.74,-7.94l0 69.46c-22.99,6.45 -48.95,11.74 -77.89,15.71 -28.78,4.13 -58.88,6.12 -89.8,6.12 -41.84,0 -77.73,-5.62 -107.66,-17.03 -30.1,-11.25 -54.74,-27.62 -73.93,-49.12 -19.35,-21.5 -33.57,-47.8 -42.67,-79.05 -9.26,-31.09 -13.89,-66.48 -13.89,-105.84 0,-34.24 4.96,-66.65 14.72,-97.24 9.92,-30.43 24.31,-57.39 43.16,-80.37 18.85,-23.15 42.01,-41.51 69.46,-55.07 27.45,-13.56 58.71,-20.34 93.61,-20.34 33.9,0 63.83,5.29 90.13,16.04 26.13,10.58 48.13,25.63 65.99,45.15 18.02,19.52 31.59,43.33 40.85,71.28 9.1,27.78 13.73,59.04 13.73,93.61zm-87.32 -11.74c0.99,-21.67 -1.16,-41.51 -6.28,-59.37 -5.13,-17.86 -13.23,-33.41 -23.98,-46.31 -10.91,-12.9 -24.31,-22.99 -40.52,-30.26 -16.21,-7.28 -34.9,-10.91 -56.23,-10.91 -18.52,0 -35.22,3.47 -50.44,10.58 -15.22,7.11 -28.28,17.2 -39.36,30.1 -10.91,12.9 -19.85,28.44 -26.63,46.64 -6.78,18.03 -10.91,37.87 -12.57,59.54l256 0z"/>
  <path id="15" class="fil0" d="M13509.74 2206.95l77.07 0 2.48 89.64c28.78,-34.57 57.06,-59.7 85,-75.25 27.95,-15.55 56.23,-23.32 84.67,-23.32 50.28,0 88.48,16.37 114.61,48.95 25.96,32.74 38.04,81.2 36.05,145.53l-85.33 0c0.99,-42.83 -5.29,-73.76 -18.69,-93.11 -13.39,-19.35 -33.07,-28.94 -58.87,-28.94 -11.25,0 -22.66,1.98 -34.07,6.12 -11.57,3.97 -23.31,10.42 -35.39,19.35 -12.24,8.93 -24.97,20.34 -38.53,34.4 -13.56,13.89 -28.11,30.76 -43.66,50.61l0 312.24 -85.33 0 0 -486.22z"/>
  <polygon id="16" class="fil1 str0" points="4594.96,2693.17 4234.76,2693.17 4234.76,2060.09 4594.96,2060.09 4594.96,2132.53 4321.09,2132.53 4321.09,2329 4584.37,2329 4584.37,2401.44 4321.09,2401.44 4321.09,2619.74 4594.96,2619.74 "/>
  <polygon id="17" class="fil1 str0" points="5199.09,2693.17 5087.13,2693.17 4955.98,2507.94 4825.83,2693.17 4716.84,2693.17 4905.38,2448.74 4725.78,2206.95 4833.77,2206.95 4961.28,2393.83 5086.96,2206.95 5191.15,2206.95 5008.24,2450.39 "/>
  <path id="18" class="fil1 str0" d="M5684.15 2675.3c-21.99,8.44 -44.48,14.72 -67.64,18.69 -23.15,4.13 -46.97,6.12 -71.44,6.12 -76.9,0 -136.11,-20.84 -177.62,-62.51 -41.51,-41.68 -62.35,-102.54 -62.35,-182.74 0,-38.37 5.95,-73.26 17.86,-104.69 12.07,-31.26 28.78,-58.05 50.44,-80.37 21.66,-22.33 47.63,-39.53 77.56,-51.6 30.1,-12.07 63.17,-18.19 99.39,-18.19 25.14,0 48.79,1.82 70.78,5.29 22,3.64 43,9.43 63.01,17.53l0 80.37c-21,-11.08 -42.33,-19.19 -64.17,-24.15 -21.83,-5.13 -44.32,-7.61 -67.64,-7.61 -21.66,0 -42,4.13 -61.35,12.4 -19.19,8.27 -36.05,20.01 -50.61,35.56 -14.55,15.54 -25.96,34.4 -34.4,56.72 -8.44,22.33 -12.57,47.46 -12.57,75.58 0,58.87 14.22,102.87 42.83,132.14 28.61,29.27 68.3,43.82 119.07,43.82 22.82,0 45.15,-2.65 66.65,-7.77 21.33,-5.13 42.17,-12.73 62.18,-22.99l0 78.39z"/>
  <path id="19" class="fil1 str0" d="M6017.39 2276.41l-143.88 0 0 -69.46 229.22 0 0 415.76 144.87 0 0 70.45 -389.96 0 0 -70.45 159.76 0 0 -346.3zm29.77 -273.87c9.43,0 18.19,1.65 26.13,5.13 8.11,3.31 15.22,8.1 21.17,14.22 5.95,6.29 10.75,13.23 14.06,21.17 3.47,7.94 5.13,16.54 5.13,25.96 0,9.09 -1.65,17.7 -5.13,25.63 -3.31,8.1 -8.11,15.22 -14.06,21.5 -5.95,6.12 -13.06,10.91 -21.17,14.22 -7.94,3.48 -16.7,5.13 -26.13,5.13 -9.43,0 -18.19,-1.65 -26.13,-5.13 -8.1,-3.31 -15.21,-8.1 -21.17,-14.22 -5.96,-6.28 -10.75,-13.4 -14.06,-21.5 -3.47,-7.94 -5.13,-16.54 -5.13,-25.63 0,-9.43 1.65,-18.03 5.13,-25.96 3.31,-7.94 8.1,-14.88 14.06,-21.17 5.95,-6.12 13.06,-10.91 21.17,-14.22 7.94,-3.47 16.7,-5.13 26.13,-5.13z"/>
  <path id="20" class="fil1 str0" d="M6783.26 2560.53c0,17.2 -2.98,32.58 -8.77,46.14 -5.79,13.56 -13.72,25.63 -23.81,36.05 -9.92,10.58 -21.66,19.52 -34.89,26.96 -13.23,7.44 -27.45,13.56 -42.5,18.36 -15.05,4.8 -30.43,8.43 -46.31,10.58 -15.88,2.31 -31.26,3.47 -46.47,3.47 -33.07,0 -63.34,-1.49 -91.13,-4.46 -27.62,-2.98 -54.74,-7.77 -81.2,-14.39l0 -77.4c28.44,8.1 56.73,14.22 84.84,18.52 28.28,4.14 56.23,6.29 84.01,6.29 40.52,0 70.45,-5.46 89.8,-16.37 19.35,-11.08 29.11,-26.63 29.11,-46.97 0,-8.76 -1.49,-16.54 -4.63,-23.48 -2.98,-6.94 -8.6,-13.56 -16.7,-19.84 -8.11,-6.29 -20.67,-12.9 -37.71,-19.68 -17.04,-6.78 -40.19,-14.56 -69.79,-23.15 -21.99,-6.61 -42.33,-13.89 -60.86,-22.16 -18.69,-8.27 -34.73,-18.03 -48.46,-29.27 -13.56,-11.25 -24.15,-24.64 -31.92,-39.69 -7.77,-15.21 -11.74,-33.24 -11.74,-53.91 0,-13.56 3.14,-28.44 9.43,-44.48 6.45,-16.21 17.2,-31.26 32.41,-45.15 15.22,-13.89 35.72,-25.47 61.69,-34.56 25.96,-9.26 58.38,-13.89 97.24,-13.89 19.19,0 40.35,0.99 63.67,3.14 23.32,1.98 47.63,5.62 72.93,10.75l0 75.41c-26.63,-6.45 -51.76,-11.24 -75.58,-14.22 -23.98,-3.14 -44.65,-4.63 -62.02,-4.63 -21.17,0 -38.86,1.65 -53.42,4.8 -14.39,3.31 -26.13,7.77 -34.89,13.39 -8.93,5.63 -15.38,12.24 -19.35,19.68 -3.8,7.61 -5.79,15.71 -5.79,24.48 0,8.76 1.65,16.7 5.13,23.81 3.31,7.11 9.76,13.89 18.85,20.51 9.26,6.61 22.16,13.23 38.7,19.85 16.54,6.61 38.04,13.89 64.67,21.66 28.78,8.44 53.09,17.2 72.93,26.46 19.68,9.1 35.72,19.35 47.96,30.76 12.41,11.24 21.17,23.98 26.63,38.2 5.3,14.22 7.94,30.43 7.94,48.46z"/>
  <path id="21" class="fil1 str0" d="M7353.65 2424.09c0,11.91 -0.17,22 -0.5,29.93 -0.33,8.1 -0.83,15.71 -1.49,22.82l-341.34 0c0,49.78 13.89,88.15 41.67,114.77 27.78,26.63 67.81,40.02 120.23,40.02 14.22,0 28.44,-0.5 42.67,-1.65 14.22,-1.16 27.95,-2.65 41.18,-4.63 13.23,-1.98 25.96,-4.13 38.04,-6.61 12.24,-2.31 23.32,-4.96 33.74,-7.94l0 69.46c-22.99,6.45 -48.95,11.74 -77.89,15.71 -28.78,4.13 -58.88,6.12 -89.8,6.12 -41.84,0 -77.73,-5.62 -107.66,-17.03 -30.1,-11.25 -54.74,-27.62 -73.93,-49.12 -19.35,-21.5 -33.57,-47.8 -42.67,-79.05 -9.26,-31.09 -13.89,-66.48 -13.89,-105.84 0,-34.24 4.96,-66.65 14.72,-97.24 9.92,-30.43 24.31,-57.39 43.16,-80.37 18.85,-23.15 42.01,-41.51 69.46,-55.07 27.45,-13.56 58.71,-20.34 93.61,-20.34 33.9,0 63.83,5.29 90.13,16.04 26.13,10.58 48.13,25.63 65.99,45.15 18.02,19.52 31.59,43.33 40.85,71.28 9.1,27.78 13.73,59.04 13.73,93.61zm-87.32 -11.74c0.99,-21.67 -1.16,-41.51 -6.28,-59.37 -5.13,-17.86 -13.23,-33.41 -23.98,-46.31 -10.91,-12.9 -24.31,-22.99 -40.52,-30.26 -16.21,-7.28 -34.9,-10.91 -56.23,-10.91 -18.52,0 -35.22,3.47 -50.44,10.58 -15.22,7.11 -28.28,17.2 -39.36,30.1 -10.91,12.9 -19.85,28.44 -26.63,46.64 -6.78,18.03 -10.91,37.87 -12.57,59.54l256 0z"/>
  <polygon id="22" class="fil1 str0" points="8460.7,2133.52 8273.16,2133.52 8273.16,2693.17 8185.84,2693.17 8185.84,2133.52 7998.3,2133.52 7998.3,2060.09 8460.7,2060.09 "/>
  <path id="23" class="fil1 str0" d="M8892.34 2693.17l-1.82 -65.33c-26.46,26.13 -53.42,45.15 -80.7,56.73 -27.29,11.74 -56.06,17.53 -86,17.53 -27.78,0 -51.59,-3.64 -71.28,-10.75 -19.68,-7.11 -36.06,-16.87 -48.79,-29.27 -12.74,-12.41 -22.16,-26.96 -28.11,-43.83 -5.95,-16.87 -8.93,-35.06 -8.93,-54.74 0,-48.79 18.19,-86.99 54.58,-114.61 36.38,-27.62 89.96,-41.51 161.08,-41.51l100.88 0 0 -42.67c0,-28.94 -9.26,-51.93 -27.62,-69.29 -18.52,-17.37 -46.64,-25.96 -84.35,-25.96 -27.45,0 -54.57,3.14 -81.2,9.26 -26.63,6.28 -54.24,15.05 -82.69,26.46l0 -76.41c10.58,-3.8 22.49,-7.61 35.56,-11.24 13.07,-3.8 26.96,-6.94 41.35,-9.93 14.56,-2.81 29.77,-5.13 45.65,-6.94 15.71,-1.82 31.75,-2.65 47.8,-2.65 29.44,0 55.9,3.31 79.55,9.76 23.48,6.45 43.49,16.21 59.7,29.44 16.37,13.23 28.78,29.93 37.54,49.94 8.77,20.01 13.07,43.66 13.07,70.78l0 335.22 -75.25 0zm-9.09 -221.28l-107 0c-21,0 -39.19,2.15 -54.41,6.28 -15.05,4.13 -27.62,10.25 -37.21,17.86 -9.76,7.78 -16.87,17.04 -21.67,27.95 -4.63,10.75 -6.94,22.98 -6.94,36.55 0,9.26 1.49,18.19 4.3,26.79 2.98,8.6 7.61,16.21 14.06,22.82 6.45,6.61 14.88,11.74 25.3,15.71 10.25,3.81 22.82,5.79 37.7,5.79 19.35,0 41.68,-5.96 66.65,-17.7 24.97,-11.74 51.43,-30.43 79.22,-55.9l0 -86.16z"/>
  <polygon id="24" class="fil1 str0" points="9563.78,2693.17 9451.82,2693.17 9320.67,2507.94 9190.52,2693.17 9081.54,2693.17 9270.07,2448.74 9090.47,2206.95 9198.46,2206.95 9325.97,2393.83 9451.65,2206.95 9555.84,2206.95 9372.93,2450.39 "/>
  <polygon id="25" class="fil1 str0" points="10660.91,2693.17 10576.57,2693.17 10563.67,2297.41 10558.21,2146.75 10528.77,2234.57 10435.5,2486.77 10375.96,2486.77 10286.99,2244.16 10257.55,2146.75 10255.56,2304.19 10244.15,2693.17 10162.79,2693.17 10194.04,2060.09 10296.25,2060.09 10381.42,2298.9 10408.87,2379.44 10435.5,2298.9 10524.8,2060.09 10629.98,2060.09 "/>
  <path id="26" class="fil1 str0" d="M11074.69 2693.17l-1.82 -65.33c-26.46,26.13 -53.42,45.15 -80.7,56.73 -27.29,11.74 -56.06,17.53 -86,17.53 -27.78,0 -51.59,-3.64 -71.28,-10.75 -19.68,-7.11 -36.06,-16.87 -48.79,-29.27 -12.74,-12.41 -22.16,-26.96 -28.11,-43.83 -5.95,-16.87 -8.93,-35.06 -8.93,-54.74 0,-48.79 18.19,-86.99 54.58,-114.61 36.38,-27.62 89.96,-41.51 161.08,-41.51l100.88 0 0 -42.67c0,-28.94 -9.26,-51.93 -27.62,-69.29 -18.52,-17.37 -46.64,-25.96 -84.35,-25.96 -27.45,0 -54.57,3.14 -81.2,9.26 -26.63,6.28 -54.24,15.05 -82.69,26.46l0 -76.41c10.58,-3.8 22.49,-7.61 35.56,-11.24 13.07,-3.8 26.96,-6.94 41.35,-9.93 14.56,-2.81 29.77,-5.13 45.65,-6.94 15.71,-1.82 31.75,-2.65 47.8,-2.65 29.44,0 55.9,3.31 79.55,9.76 23.48,6.45 43.49,16.21 59.7,29.44 16.37,13.23 28.78,29.93 37.54,49.94 8.77,20.01 13.07,43.66 13.07,70.78l0 335.22 -75.25 0zm-9.09 -221.28l-107 0c-21,0 -39.19,2.15 -54.41,6.28 -15.05,4.13 -27.62,10.25 -37.21,17.86 -9.76,7.78 -16.87,17.04 -21.67,27.95 -4.63,10.75 -6.94,22.98 -6.94,36.55 0,9.26 1.49,18.19 4.3,26.79 2.98,8.6 7.61,16.21 14.06,22.82 6.45,6.61 14.88,11.74 25.3,15.71 10.25,3.81 22.82,5.79 37.7,5.79 19.35,0 41.68,-5.96 66.65,-17.7 24.97,-11.74 51.43,-30.43 79.22,-55.9l0 -86.16z"/>
  <path id="27" class="fil1 str0" d="M11307.54 2206.95l75.08 0 3.47 78.39c14.22,-16.7 27.95,-30.76 41.18,-42 13.23,-11.08 26.13,-20.01 39.03,-26.79 12.74,-6.95 25.63,-11.58 38.87,-14.39 13.23,-2.81 26.96,-4.13 41.18,-4.13 50.11,0 87.98,14.72 113.61,44.32 25.63,29.6 38.54,74.09 38.54,133.46l0 317.36 -84.34 0 0 -310.75c0,-38.2 -7.11,-66.31 -21.33,-84.51 -14.22,-18.36 -35.39,-27.45 -63.34,-27.45 -10.42,0 -20.5,1.49 -30.26,4.63 -9.92,2.98 -20.17,8.43 -30.76,16.04 -10.75,7.61 -22.33,17.86 -34.73,30.76 -12.41,12.9 -26.3,29.11 -41.84,48.46l0 322.82 -84.34 0 0 -486.22z"/>
  <path id="28" class="fil1 str0" d="M12165.86 2693.17l-1.82 -65.33c-26.46,26.13 -53.42,45.15 -80.7,56.73 -27.29,11.74 -56.06,17.53 -86,17.53 -27.78,0 -51.59,-3.64 -71.28,-10.75 -19.68,-7.11 -36.06,-16.87 -48.79,-29.27 -12.74,-12.41 -22.16,-26.96 -28.11,-43.83 -5.95,-16.87 -8.93,-35.06 -8.93,-54.74 0,-48.79 18.19,-86.99 54.58,-114.61 36.38,-27.62 89.96,-41.51 161.08,-41.51l100.88 0 0 -42.67c0,-28.94 -9.26,-51.93 -27.62,-69.29 -18.52,-17.37 -46.64,-25.96 -84.35,-25.96 -27.45,0 -54.57,3.14 -81.2,9.26 -26.63,6.28 -54.24,15.05 -82.69,26.46l0 -76.41c10.58,-3.8 22.49,-7.61 35.56,-11.24 13.07,-3.8 26.96,-6.94 41.35,-9.93 14.56,-2.81 29.77,-5.13 45.65,-6.94 15.71,-1.82 31.75,-2.65 47.8,-2.65 29.44,0 55.9,3.31 79.55,9.76 23.48,6.45 43.49,16.21 59.7,29.44 16.37,13.23 28.78,29.93 37.54,49.94 8.77,20.01 13.07,43.66 13.07,70.78l0 335.22 -75.25 0zm-9.09 -221.28l-107 0c-21,0 -39.19,2.15 -54.41,6.28 -15.05,4.13 -27.62,10.25 -37.21,17.86 -9.76,7.78 -16.87,17.04 -21.67,27.95 -4.63,10.75 -6.94,22.98 -6.94,36.55 0,9.26 1.49,18.19 4.3,26.79 2.98,8.6 7.61,16.21 14.06,22.82 6.45,6.61 14.88,11.74 25.3,15.71 10.25,3.81 22.82,5.79 37.7,5.79 19.35,0 41.68,-5.96 66.65,-17.7 24.97,-11.74 51.43,-30.43 79.22,-55.9l0 -86.16z"/>
  <path id="29" class="fil1 str0" d="M12749.15 2275.42c9.1,11.24 16.04,24.48 21.17,39.53 4.96,15.05 7.44,31.42 7.44,48.78 0,25.3 -4.63,48.29 -13.89,69.13 -9.09,20.84 -22.16,38.7 -38.87,53.58 -16.87,14.89 -37.04,26.3 -60.36,34.56 -23.48,8.27 -49.28,12.41 -77.4,12.41 -20.34,0 -39.36,-2.15 -57.22,-6.61 -17.7,-4.3 -31.75,-9.76 -42.17,-16.21 -6.12,9.09 -11.24,17.7 -15.38,25.8 -4.13,7.94 -6.28,17.04 -6.28,26.96 0,12.41 5.95,22.49 17.69,30.59 11.74,8.11 27.45,12.41 46.8,13.07l128 4.8c24.15,0.66 46.64,3.8 67.14,9.26 20.51,5.46 38.04,13.4 52.76,23.65 14.72,10.42 26.13,23.15 34.4,38.37 8.27,15.05 12.4,32.74 12.4,52.76 0,21.66 -4.63,42.17 -14.06,61.52 -9.43,19.35 -23.81,36.38 -43.33,51.1 -19.52,14.56 -44.32,26.3 -74.42,35.06 -30.1,8.77 -65.82,13.07 -107.17,13.07 -39.36,0 -72.93,-3.14 -100.55,-9.43 -27.62,-6.28 -50.28,-15.05 -67.97,-26.13 -17.86,-11.08 -30.76,-24.31 -38.87,-39.69 -8.1,-15.38 -12.07,-32.08 -12.07,-50.44 0,-23.65 5.46,-44.32 16.37,-62.02 10.92,-17.7 27.95,-34.9 50.77,-51.27 -8.43,-3.81 -15.71,-8.77 -21.83,-14.56 -6.12,-5.79 -11.08,-12.24 -14.88,-19.19 -3.8,-6.94 -6.78,-14.22 -8.76,-21.99 -1.82,-7.78 -2.81,-15.38 -2.81,-22.82 0,-21 4.96,-40.19 14.72,-57.72 9.76,-17.53 21.5,-33.9 34.89,-49.44 -6.12,-7.44 -11.41,-14.72 -16.2,-21.83 -4.63,-7.11 -8.6,-14.72 -12.07,-22.99 -3.31,-8.27 -5.95,-17.2 -7.77,-26.63 -1.82,-9.59 -2.65,-20.51 -2.65,-32.74 0,-25.3 4.63,-48.29 13.89,-69.13 9.1,-20.84 22.16,-38.7 38.7,-53.58 16.7,-14.89 36.71,-26.3 60.2,-34.56 23.48,-8.27 49.28,-12.41 77.73,-12.41 12.07,0 23.48,0.83 34.57,2.48 10.91,1.65 20.67,3.8 29.11,6.45l176.46 0 0 68.47 -78.22 0zm-292.89 488.04c0,22.82 11.91,39.52 35.89,49.94 23.98,10.42 57.22,15.71 99.89,15.71 26.79,0 49.45,-2.48 67.64,-7.28 18.36,-4.8 32.91,-11.08 44.16,-19.02 11.08,-7.94 19.18,-16.87 23.98,-26.96 4.8,-10.25 7.28,-20.67 7.28,-31.26 0,-19.52 -8.1,-34.07 -24.31,-43.33 -16.04,-9.43 -40.85,-14.88 -74.09,-16.54l-127.01 -4.3c-10.75,7.11 -19.52,14.06 -26.46,20.67 -6.94,6.78 -12.4,13.73 -16.2,20.67 -3.97,6.78 -6.78,13.73 -8.27,20.67 -1.65,6.94 -2.48,13.89 -2.48,21zm25.8 -397.74c0,15.55 2.65,29.77 7.77,42.67 5.13,12.9 12.41,23.81 21.83,32.91 9.26,9.1 20.34,16.04 33.24,21.17 12.73,4.96 26.79,7.44 42.33,7.44 16.87,0 31.75,-2.81 44.82,-8.43 13.06,-5.62 24.15,-13.39 32.91,-22.99 8.93,-9.76 15.71,-20.84 20.34,-33.57 4.8,-12.57 7.11,-25.63 7.11,-39.2 0,-15.54 -2.65,-29.77 -7.77,-42.67 -5.13,-12.9 -12.41,-23.81 -21.83,-32.91 -9.26,-9.1 -20.34,-16.04 -33.24,-21.17 -12.74,-4.96 -26.79,-7.44 -42.34,-7.44 -16.87,0 -31.75,2.98 -44.82,8.77 -13.06,5.79 -24.14,13.39 -32.91,22.99 -8.93,9.59 -15.71,20.5 -20.34,33.24 -4.8,12.57 -7.11,25.63 -7.11,39.19z"/>
  <path id="30" class="fil1 str0" d="M13355.11 2424.09c0,11.91 -0.17,22 -0.5,29.93 -0.33,8.1 -0.83,15.71 -1.49,22.82l-341.34 0c0,49.78 13.89,88.15 41.67,114.77 27.78,26.63 67.81,40.02 120.23,40.02 14.22,0 28.44,-0.5 42.67,-1.65 14.22,-1.16 27.95,-2.65 41.18,-4.63 13.23,-1.98 25.96,-4.13 38.04,-6.61 12.24,-2.31 23.32,-4.96 33.74,-7.94l0 69.46c-22.99,6.45 -48.95,11.74 -77.89,15.71 -28.78,4.13 -58.88,6.12 -89.8,6.12 -41.84,0 -77.73,-5.62 -107.66,-17.03 -30.1,-11.25 -54.74,-27.62 -73.93,-49.12 -19.35,-21.5 -33.57,-47.8 -42.67,-79.05 -9.26,-31.09 -13.89,-66.48 -13.89,-105.84 0,-34.24 4.96,-66.65 14.72,-97.24 9.92,-30.43 24.31,-57.39 43.16,-80.37 18.85,-23.15 42.01,-41.51 69.46,-55.07 27.45,-13.56 58.71,-20.34 93.61,-20.34 33.9,0 63.83,5.29 90.13,16.04 26.13,10.58 48.13,25.63 65.99,45.15 18.02,19.52 31.59,43.33 40.85,71.28 9.1,27.78 13.73,59.04 13.73,93.61zm-87.32 -11.74c0.99,-21.67 -1.16,-41.51 -6.28,-59.37 -5.13,-17.86 -13.23,-33.41 -23.98,-46.31 -10.91,-12.9 -24.31,-22.99 -40.52,-30.26 -16.21,-7.28 -34.9,-10.91 -56.23,-10.91 -18.52,0 -35.22,3.47 -50.44,10.58 -15.22,7.11 -28.28,17.2 -39.36,30.1 -10.91,12.9 -19.85,28.44 -26.63,46.64 -6.78,18.03 -10.91,37.87 -12.57,59.54l256 0z"/>
  <path id="31" class="fil1 str0" d="M13509.74 2206.95l77.07 0 2.48 89.64c28.78,-34.57 57.06,-59.7 85,-75.25 27.95,-15.55 56.23,-23.32 84.67,-23.32 50.28,0 88.48,16.37 114.61,48.95 25.96,32.74 38.04,81.2 36.05,145.53l-85.33 0c0.99,-42.83 -5.29,-73.76 -18.69,-93.11 -13.39,-19.35 -33.07,-28.94 -58.87,-28.94 -11.25,0 -22.66,1.98 -34.07,6.12 -11.57,3.97 -23.31,10.42 -35.39,19.35 -12.24,8.93 -24.97,20.34 -38.53,34.4 -13.56,13.89 -28.11,30.76 -43.66,50.61l0 312.24 -85.33 0 0 -486.22z"/>
 </g>
 <g id="Layer_x0020_1_0">
  <metadata id="CorelCorpID_1Corel-Layer"/>
  <path class="fil2" d="M2050.94 89.39l1891.11 1091.86 0 469.38 -1687.89 -974.49 0 3663.29 -203.22 117.35 -203.27 -117.35 0 -3663.29 -1687.87 974.49 0 -469.38 1891.15 -1091.86 0 0zm-1484.65 2332.49l1078.13 0 0 406.5 -1078.13 0 0 301.87c359.41,207.49 718.77,414.99 1078.16,622.5l0 469.32 -1484.65 -857.13c0,-493.21 0,-986.4 0,-1479.61l1484.62 -857.16 0.03 469.37c-359.39,207.49 -718.75,414.98 -1078.16,622.48l0 301.87 0 0zm1891.12 -1393.67l1484.64 857.13 0 1479.61 -369.24 213.18 0 -1438.56 -188.44 -108.79 0 1656.17 -369.26 213.18c0,-694.17 0,-1388.36 0,-2082.52l-188.44 -108.8 0 2300.13 -369.26 213.17c0,-1064.65 0,-2129.26 0,-3193.91l0 0z"/>
 </g>
</svg>
