<?xml version="1.0" encoding="UTF-8"?>
<!DOCTYPE svg PUBLIC "-//W3C//DTD SVG 1.1//EN" "http://www.w3.org/Graphics/SVG/1.1/DTD/svg11.dtd">
<!-- Creator: CorelDRAW 2018 (64-Bit) -->
<svg xmlns="http://www.w3.org/2000/svg" xml:space="preserve" width="33.3333in" height="33.3333in" version="1.1" style="shape-rendering:geometricPrecision; text-rendering:geometricPrecision; image-rendering:optimizeQuality; fill-rule:evenodd; clip-rule:evenodd"
viewBox="0 0 33333.33 33333.33"
 xmlns:xlink="http://www.w3.org/1999/xlink">
 <defs>
  <style type="text/css">
   <![CDATA[
    .fil1 {fill:black}
    .fil0 {fill:white}
   ]]>
  </style>
 </defs>
 <g id="Layer_x0020_1">
  <metadata id="CorelCorpID_0Corel-Layer"/>
  <polygon class="fil0" points="-0,33333.33 33333.3,33333.33 33333.3,0.04 -0,0.04 "/>
  <path class="fil1" d="M16679.9 440.76l14111.18 8147.32 0 3502.42 -12594.76 -7271.5 0 27334.91 -1516.43 875.68 -1516.8 -875.68 0 -27334.91 -12594.66 7271.5 0 -3502.42 14111.46 -8147.32zm-11078.24 17404.69l8044.85 0 0 3033.21 -8044.85 0 0 2252.48c2681.86,1548.28 5363.35,3096.58 8045.03,4645.05l0 3502 -11078.24 -6395.82c0,-3680.25 0,-7360.37 0,-11040.63l11078.06 -6396 0.18 3502.42c-2681.67,1548.24 -5363.17,3096.52 -8045.03,4644.81l0 2252.48zm14111.28 -10399.35l11078.15 6395.81 0 11040.63 -2755.23 1590.73 0 -10734.33 -1406.09 -811.78 0 12358.07 -2755.37 1590.72c0,-5179.76 0,-10359.75 0,-15539.47l-1406.09 -811.82 0 17163.25 -2755.37 1590.67c0,-7944.28 0,-15888.2 0,-23832.49z"/>
 </g>
</svg>
